<?xml version="1.0" standalone="no"?>
<!DOCTYPE svg PUBLIC "-//W3C//DTD SVG 20010904//EN"
 "http://www.w3.org/TR/2001/REC-SVG-20010904/DTD/svg10.dtd">
<svg version="1.0" xmlns="http://www.w3.org/2000/svg"
 width="1134.000000pt" height="410.000000pt" viewBox="0 0 1134.000000 410.000000"
 preserveAspectRatio="xMidYMid meet">

<g transform="translate(0.000000,410.000000) scale(0.100000,-0.100000)"
fill="#ffffff" stroke="none">
<path d="M2118 3707 l-527 -392 -1 -288 c0 -169 4 -287 9 -285 5 2 246 143
535 313 l526 310 0 368 c0 202 -3 367 -7 367 -5 -1 -245 -177 -535 -393z"/>
<path d="M2800 3734 l1 -369 476 -280 c262 -154 502 -295 534 -313 l59 -34 0
289 0 288 -522 389 c-287 213 -528 390 -535 393 -11 4 -13 -65 -13 -363z"/>
<path d="M2120 2886 l-525 -303 -3 -262 c-1 -157 1 -261 7 -259 5 1 246 116
535 253 l526 250 0 313 c0 171 -3 312 -7 312 -5 0 -244 -137 -533 -304z"/>
<path d="M2802 2879 l3 -313 505 -241 c278 -132 517 -246 533 -252 l27 -13 0
263 -1 262 -521 300 c-287 165 -528 301 -535 303 -11 3 -13 -52 -11 -309z"/>
<path d="M368 2348 l-367 -233 0 -187 -1 -188 48 19 c26 10 190 78 365 150
l318 131 364 0 365 0 0 265 0 265 -102 0 c-57 0 -220 3 -363 6 l-260 5 -367
-233z"/>
<path d="M4158 2573 l-158 -4 0 -264 0 -265 366 0 366 0 331 -136 c183 -75
347 -142 365 -150 l32 -13 0 187 0 187 -367 233 -367 232 -205 -2 c-114 -1
-277 -4 -363 -5z"/>
<path d="M2120 2165 l-525 -224 -3 -286 c-2 -209 1 -285 9 -285 10 0 480 151
907 291 l152 51 0 339 c0 186 -3 339 -7 339 -5 -1 -244 -102 -533 -225z"/>
<path d="M2800 2051 l0 -339 63 -21 c438 -143 992 -321 999 -321 4 0 7 129 6
286 l-3 287 -525 223 c-289 123 -528 224 -532 224 -5 0 -8 -153 -8 -339z"/>
<path d="M10230 2299 c0 -57 63 -90 131 -70 40 12 59 35 59 70 0 28 -24 26
-54 -4 -14 -14 -32 -25 -41 -25 -9 0 -27 11 -41 25 -30 30 -54 32 -54 4z"/>
<path d="M6172 2204 c-12 -8 -22 -10 -22 -5 0 6 -18 11 -40 11 l-40 0 0 -200
0 -200 40 0 40 0 0 66 0 65 22 -15 c30 -21 102 -20 135 1 35 23 53 71 53 138
0 63 -17 103 -56 134 -32 25 -99 28 -132 5z m68 -64 c29 -15 44 -73 30 -114
-12 -36 -26 -46 -66 -46 -49 0 -71 95 -33 144 22 28 39 32 69 16z"/>
<path d="M5820 2060 l0 -150 40 0 40 0 0 120 0 120 70 0 70 0 0 30 0 30 -110
0 -110 0 0 -150z"/>
<path d="M6411 2098 c23 -62 47 -131 55 -152 17 -47 6 -66 -37 -66 -26 0 -29
-3 -29 -35 l0 -35 53 0 c43 0 58 5 74 23 17 18 143 343 143 369 0 4 -20 8 -44
8 l-43 0 -29 -95 -29 -96 -29 96 -29 95 -48 0 -48 0 40 -112z"/>
<path d="M6700 2060 l0 -150 40 0 40 0 0 120 0 120 55 0 55 0 0 -120 0 -120
40 0 40 0 0 150 0 150 -135 0 -135 0 0 -150z"/>
<path d="M7030 2060 l0 -150 40 0 40 0 0 120 0 120 55 0 55 0 0 -120 0 -120
40 0 40 0 0 150 0 150 -135 0 -135 0 0 -150z"/>
<path d="M7404 2200 c-26 -10 -54 -48 -54 -72 0 -27 71 -25 88 2 16 26 68 27
81 1 14 -25 -1 -37 -54 -46 -106 -18 -125 -34 -125 -104 0 -31 6 -44 26 -60
33 -26 109 -28 142 -5 12 8 22 10 22 5 0 -6 19 -11 43 -11 l42 0 -5 126 c-5
123 -6 126 -33 150 -23 20 -38 24 -90 23 -34 0 -72 -4 -83 -9z m122 -187 c-8
-33 -31 -53 -62 -53 -49 0 -54 55 -5 66 14 3 31 7 36 9 30 10 37 4 31 -22z"/>
<path d="M7830 2060 l0 -150 40 0 40 0 0 43 c0 29 6 49 18 60 16 15 20 12 56
-44 l38 -59 55 0 54 0 -60 87 c-34 47 -61 90 -61 95 0 5 23 34 51 64 l52 54
-54 0 c-53 -1 -55 -2 -101 -56 l-48 -55 0 55 0 56 -40 0 -40 0 0 -150z"/>
<path d="M8193 2190 c-43 -26 -63 -68 -63 -132 0 -96 53 -148 150 -148 97 0
150 52 150 148 0 100 -51 152 -150 152 -37 0 -66 -6 -87 -20z m111 -51 c34
-16 51 -68 36 -113 -22 -67 -98 -68 -120 -2 -18 57 5 108 57 125 1 1 13 -4 27
-10z"/>
<path d="M8480 2060 l0 -150 40 0 40 0 1 88 1 87 22 -85 22 -85 44 0 44 0 22
85 22 85 1 -87 1 -88 40 0 40 0 0 150 0 150 -60 0 -59 0 -10 -37 c-6 -20 -16
-60 -22 -90 -7 -29 -15 -53 -19 -53 -4 0 -12 24 -19 53 -6 30 -16 70 -22 90
l-10 37 -59 0 -60 0 0 -150z"/>
<path d="M8880 2060 l0 -150 40 0 40 0 0 120 0 120 55 0 55 0 0 -120 0 -120
40 0 40 0 0 150 0 150 -135 0 -135 0 0 -150z"/>
<path d="M9264 2200 c-26 -10 -54 -48 -54 -72 0 -27 71 -25 88 2 16 26 68 27
81 1 14 -25 -1 -37 -54 -46 -106 -18 -125 -34 -125 -104 0 -31 6 -44 26 -60
33 -26 109 -28 142 -5 12 8 22 10 22 5 0 -6 19 -11 43 -11 l42 0 -5 126 c-5
123 -6 126 -33 150 -23 20 -38 24 -90 23 -34 0 -72 -4 -83 -9z m122 -187 c-8
-33 -31 -53 -62 -53 -49 0 -54 55 -5 66 14 3 31 7 36 9 30 10 37 4 31 -22z"/>
<path d="M9530 2060 l0 -150 40 0 40 0 0 60 0 60 55 0 55 0 0 -60 0 -60 40 0
40 0 0 150 0 150 -40 0 -40 0 0 -55 0 -55 -55 0 -55 0 0 55 0 55 -40 0 -40 0
0 -150z"/>
<path d="M9860 2060 l0 -150 48 0 47 0 45 87 45 86 3 -86 3 -87 39 0 40 0 0
150 0 150 -47 0 -48 0 -45 -87 -45 -86 -3 86 -3 87 -39 0 -40 0 0 -150z"/>
<path d="M10190 2060 l0 -150 48 0 47 0 45 87 45 86 3 -86 3 -87 39 0 40 0 0
150 0 150 -47 0 -48 0 -45 -87 -45 -86 -3 86 -3 87 -39 0 -40 0 0 -150z"/>
<path d="M4373 1912 l-363 -2 0 -280 0 -280 353 0 353 0 360 -85 c197 -47 367
-88 377 -91 16 -5 17 10 17 219 l0 225 -357 143 c-197 78 -362 145 -368 148
-5 3 -173 5 -372 3z"/>
<path d="M360 1765 l-355 -143 -3 -225 -2 -225 57 13 c32 8 201 48 375 89
l317 76 351 0 350 0 0 280 0 280 -367 -1 -368 -1 -355 -143z"/>
<path d="M8212 1630 c-354 -77 -597 -304 -667 -624 -14 -61 -16 -109 -13 -220
4 -126 8 -151 37 -236 91 -270 298 -449 609 -527 52 -14 113 -17 272 -18 242
0 322 15 480 92 80 38 108 59 180 132 111 112 165 218 189 373 l8 48 -212 0
-212 0 -17 -63 c-41 -148 -134 -235 -288 -272 -176 -41 -361 6 -476 122 -99
98 -143 219 -143 388 0 221 90 388 252 469 91 46 163 60 279 54 191 -10 321
-91 371 -230 l13 -38 208 0 208 0 0 24 c0 45 -40 152 -78 212 -88 135 -252
247 -443 300 -82 23 -117 27 -279 30 -158 3 -199 1 -278 -16z"/>
<path d="M5820 830 l0 -800 210 0 210 0 0 285 0 285 263 0 c285 0 396 12 510
53 220 80 337 241 337 460 0 140 -48 255 -140 340 -71 66 -133 99 -244 131
-123 36 -283 46 -753 46 l-393 0 0 -800z m958 476 c61 -20 119 -67 138 -113
18 -42 18 -135 0 -176 -46 -107 -153 -136 -503 -137 l-173 0 0 226 0 226 243
-4 c192 -4 253 -8 295 -22z"/>
<path d="M9590 825 l0 -795 205 0 205 0 0 253 0 253 116 94 c64 52 120 95 125
95 4 0 135 -156 289 -348 l281 -347 265 0 c172 0 264 4 262 10 -1 5 -181 220
-398 477 -217 257 -395 470 -395 473 0 4 162 143 360 310 198 166 364 307 369
311 6 5 -108 9 -265 9 l-274 -1 -365 -323 -365 -323 -3 323 -2 324 -205 0
-205 0 0 -795z"/>
<path d="M2113 1413 l-523 -166 0 -284 c0 -265 1 -283 18 -283 17 0 997 205
1035 216 16 5 17 30 17 345 0 265 -3 339 -12 338 -7 0 -248 -75 -535 -166z"/>
<path d="M2800 1241 c0 -315 1 -340 18 -345 37 -11 1022 -216 1037 -216 13 0
15 35 15 284 l0 284 -32 11 c-558 176 -1021 321 -1029 321 -5 0 -9 -133 -9
-339z"/>
<path d="M495 1184 c-126 -30 -290 -68 -363 -85 l-132 -31 0 -229 0 -229 28 0
c16 0 179 14 362 30 296 27 374 30 697 30 l363 0 0 285 0 285 -362 -1 -363 0
-230 -55z"/>
<path d="M4010 955 l0 -285 368 0 c330 0 404 -3 698 -30 181 -16 344 -30 362
-30 l32 0 0 229 0 229 -47 11 c-27 5 -194 44 -372 85 l-324 76 -358 0 -359 0
0 -285z"/>
<path d="M2225 694 c-220 -40 -453 -83 -517 -95 l-118 -21 0 -274 0 -274 535
0 535 0 0 370 c0 346 -1 370 -17 369 -10 -1 -198 -34 -418 -75z"/>
<path d="M2800 400 l0 -370 535 0 535 0 0 274 0 274 -27 6 c-56 11 -1029 186
-1036 186 -4 0 -7 -166 -7 -370z"/>
<path d="M365 531 l-360 -36 -3 -233 -2 -232 725 0 725 0 0 270 0 270 -362 -1
c-339 -2 -387 -4 -723 -38z"/>
<path d="M4010 300 l0 -270 730 0 730 0 0 230 0 230 -22 4 c-13 3 -188 21
-389 41 -338 32 -392 35 -707 35 l-342 0 0 -270z"/>
</g>
</svg>
