<?xml version="1.0" standalone="no"?>
<!DOCTYPE svg PUBLIC "-//W3C//DTD SVG 20010904//EN"
 "http://www.w3.org/TR/2001/REC-SVG-20010904/DTD/svg10.dtd">
<svg version="1.0" xmlns="http://www.w3.org/2000/svg"
 width="341.000000pt" height="140.000000pt" viewBox="0 60.000000 341.000000 110.000000"
 preserveAspectRatio="xMidYMid meet">

<g transform="translate(0.000000,189.000000) scale(0.100000,-0.100000)"
fill="#c9a512" stroke="none">
<path d="M51 1231 c-12 -8 -13 -75 -7 -442 4 -238 10 -437 12 -441 3 -4 102
-8 220 -8 l215 0 -3 78 -3 77 -125 3 -126 3 -12 262 c-7 144 -12 310 -12 370
l0 107 -72 0 c-40 0 -79 -4 -87 -9z"/>
<path d="M2613 1220 c-13 -5 -23 -11 -24 -12 0 -2 -2 -149 -5 -327 -6 -354
-11 -389 -57 -405 -23 -9 -31 -6 -52 14 l-24 25 11 337 c6 186 8 344 5 353 -8
20 -149 22 -165 2 -13 -15 -29 -638 -18 -709 19 -128 152 -216 277 -184 63 17
131 73 159 133 27 58 36 154 45 504 l6 256 -53 6 c-29 3 -60 8 -68 11 -8 2
-25 1 -37 -4z"/>
<path d="M2036 1008 c-3 -112 -7 -311 -8 -443 l-3 -240 81 -3 81 -3 6 48 c4
26 9 227 13 446 l7 397 -85 0 -86 0 -6 -202z"/>
<path d="M666 995 c-49 -17 -93 -59 -117 -110 -16 -34 -19 -66 -19 -220 0
-153 3 -186 19 -220 37 -82 137 -133 238 -121 98 11 153 56 179 144 22 73 12
82 -82 82 -63 0 -73 -3 -79 -19 -9 -30 -32 -44 -60 -37 -18 5 -27 17 -35 47
-6 23 -8 45 -3 50 5 5 67 10 138 11 l130 3 3 115 c4 139 -7 177 -63 229 -62
57 -165 76 -249 46z m125 -176 c14 -14 19 -30 17 -57 -3 -36 -5 -37 -44 -40
-53 -4 -66 11 -54 62 13 58 44 72 81 35z"/>
<path d="M1650 987 c-39 -13 -106 -75 -120 -113 -6 -14 -11 -114 -12 -222 -2
-190 -2 -199 21 -237 41 -73 136 -113 236 -100 99 13 165 77 181 172 7 48 2
51 -86 54 -76 2 -78 2 -85 -22 -4 -11 -18 -25 -31 -31 -35 -16 -64 13 -64 63
l0 38 133 3 132 3 5 120 c6 135 -5 179 -56 227 -56 52 -168 72 -254 45z m124
-176 c12 -13 16 -32 14 -56 -3 -38 -3 -38 -48 -39 -44 -1 -45 0 -48 32 -4 39
21 82 47 82 10 0 26 -9 35 -19z"/>
<path d="M1016 982 c-3 -5 2 -40 10 -78 24 -105 38 -172 79 -369 21 -99 43
-186 48 -192 6 -9 38 -13 92 -13 54 0 86 4 92 13 5 6 20 57 33 112 12 55 28
125 36 155 58 234 85 354 80 366 -8 20 -172 20 -179 0 -3 -8 -15 -72 -27 -142
-22 -134 -28 -160 -35 -153 -2 3 -13 69 -24 148 -12 79 -24 147 -27 152 -7 11
-171 12 -178 1z"/>
<path d="M2860 960 c-11 -21 -31 -455 -34 -730 l-1 -145 79 -3 c57 -2 82 1 87
10 5 7 9 66 9 131 0 64 3 117 7 117 3 0 15 -8 26 -18 14 -12 36 -17 81 -17 74
0 103 18 141 88 27 49 29 69 38 432 1 42 -39 119 -73 138 -35 21 -137 23 -166
3 -17 -12 -22 -12 -39 0 -11 8 -44 14 -82 14 -53 0 -64 -3 -73 -20z m243 -160
c19 -27 12 -274 -9 -307 -17 -27 -46 -30 -69 -6 -15 15 -16 33 -10 157 5 105
11 145 23 159 20 23 48 22 65 -3z"/>
</g>
</svg>
